<?xml version="1.0" encoding="utf-8"?>
<!-- Generator: Adobe Illustrator 24.1.0, SVG Export Plug-In . SVG Version: 6.00 Build 0)  -->
<svg version="1.1" id="Layer_1" xmlns="http://www.w3.org/2000/svg" xmlns:xlink="http://www.w3.org/1999/xlink" x="0px" y="0px"
	 viewBox="0 0 732 264" style="enable-background:new 0 0 732 264;" xml:space="preserve">
<style type="text/css">
	.st0{fill:#FFFFFF;}
</style>
<g>
	<path class="st0" d="M289.3,33.2c-3.8,0-7.8-0.7-11.4,0.2c-2.7,0.6-6,2.8-7,5.2c-0.8,1.8,1,5.7,2.8,7.3c4.5,4.1,9.6,7.5,14.5,11.1
		c7.1,5.2,7.1,17.2-0.3,21.9c-6,3.9-8.7,8.4-6.9,15.8c1.1,4.4,0.9,9.2,1.1,13.8c0.4,9.2,1.5,18.4,0.8,27.5
		c-1,13.3,0.6,26.2,1.9,39.3c1.4,14.5,0.5,29.3,0.2,44c-0.1,5.3-1.7,10.5-2.1,15.8c-0.4,5.1,0.3,10.3-0.2,15.4
		c-0.2,2.5-1.3,5.5-3,7.2c-0.9,0.9-4.5,0-6.1-1.2c-1.8-1.4-3.5-3.8-4-6c-1.2-5.1-2.2-10.4-2.5-15.7c-0.9-15.1-1-30.2-2.2-45.3
		c-0.8-10.8-3.2-21.4-4.3-32.1c-1.6-15.2-2.5-30.4-4.3-45.6c-0.6-4.7-2.1-9.9-4.9-13.7c-4.7-6.5-10.6-12.3-16.3-18.1
		c-5.5-5.6-5.4-7.6,1.5-11.2c0.3-0.2,0.6-0.3,0.8-0.5c2.7-2.1,7.6-2.8,6.2-7.7c-1.4-4.9-6-5.1-9.9-4.6c-5.5,0.8-11.3,1.6-16.2,4.1
		c-6.7,3.4-7,9.1-2.1,14.8c2.4,2.8,5.3,5.2,7.1,8.3c1.8,3,3.4,6.6,3.5,10c0.4,12.8,0.2,25.6,0.2,38.4c0,12-0.2,24,0.1,36
		c0.2,7.4,1.3,14.8,1.8,22.2c0.3,4.2,0.2,8.4,0,12.6c-0.6,18.1-1.3,36.2-2,54.4c-0.1,1.6-0.3,3.4-1.1,4.7c-0.9,1.4-2.6,3.2-4,3.3
		c-1.6,0-3.7-1.3-4.9-2.6c-1.1-1.3-1.7-3.3-1.9-5.1c-1.1-10-2.1-20.1-3-30.2c-0.9-10.4-1.6-20.8-2.7-31.2
		c-2.3-20.5-4.9-40.9-7.2-61.4c-0.9-8-0.7-16.2-2.1-24.2c-0.8-4.7-3.2-9.4-5.7-13.5c-3.9-6.5-7.5-12.6-3.2-20.4
		c0.8-1.5,0.6-4,0.1-5.8c-1.9-8-0.5-11.4,6-16.2c3.5-2.6,6.8-5.8,9.4-9.3c1-1.3,0.4-4.8-0.7-6.4c-1.1-1.8-3.6-3-5.8-3.7
		c-7.4-2.3-15-4.3-22.4-6.5c-1.1-0.3-2.4-0.3-3.4-0.8c-3.9-1.9-9-3.9-8.2-8.8c0.5-3.2,4.1-6.5,7.1-8.4c6.8-4.3,14.5-4.3,21.6-0.8
		c10.4,5.1,20.6,10.8,30.8,16.3c1.4,0.8,2.6,2,4,2.9c11.2,7.4,16.7,7.8,27.1-2.6c6-5.9,13.3-10.6,20.5-15.1c2.7-1.7,6.7-2.1,10-1.9
		c15.3,1.2,30.5,1.4,45.8-1c2.3-0.4,4.7-0.3,7-0.1c6.9,0.6,12.8-1.8,18.7-5.2c2.3-1.3,5.9-1.4,8.6-0.7c1.9,0.5,3.7,3.2,4.3,5.3
		c0.3,0.9-2.6,2.8-4.2,4.1c-0.9,0.7-2.3,0.9-3,1.7c-14.2,15.4-34.2,14.4-52.3,18.4c-7.1,1.6-14.6,1.3-21.9,1.8
		C289.3,33.5,289.3,33.3,289.3,33.2z M255.1,78c2.4-2.7,4.9-4.4,4.7-5.7c-0.2-1.6-2.6-3.6-4.3-3.9c-1.2-0.2-4,2-4.1,3.3
		C251.2,73.3,253.2,75,255.1,78z"/>
	<path class="st0" d="M556.7,33.4c-7.8,0-14.1-0.4-20.4,0.2c-2.7,0.3-6.3,2.1-7.6,4.3c-0.9,1.6,0.7,5.7,2.4,7.4
		c3.5,3.6,7.7,6.6,11.9,9.7c10.1,7.4,10.9,16.3,1.5,24.5c-5.8,5.1-6.2,11.1-5.4,18c0.6,5.3,0.2,10.8,0.2,16.1c0,0.8-0.1,1.6,0,2.5
		c0.6,8.2,1.5,16.5,1.7,24.7c0.3,10.8-0.1,21.7,0.1,32.5c0.2,10.5,1,20.9,0.9,31.3c-0.1,9.1-1.3,18.2-1.6,27.4
		c-0.2,6.1,0.4,12.2,0.7,18.3c0.2,3.8-1,7.5-4.9,8.2c-4,0.7-6.5-2.7-7.3-6.2c-1.4-5.9-2.4-12-3-18.1c-1-9.9-1.6-19.8-2.3-29.8
		c-0.4-5.6-0.3-11.3-1.1-16.9c-2.5-16.9-5.7-33.7-7.9-50.6c-1.2-9-0.6-18.2-1.5-27.3c-0.4-3.8-1.7-7.9-3.9-10.9
		c-4.8-6.5-10.4-12.5-16-18.5c-5.4-5.8-5.3-7.8,1.8-11.8c0.3-0.2,0.6-0.3,0.9-0.5c2.7-1.9,6.2-3.4,5.1-7.6c-1.1-4.3-5-4.9-8.4-4.5
		c-5.9,0.7-11.9,1.6-17.5,3.4c-7.2,2.4-7.9,9.5-2.4,15.6c4.2,4.6,9.5,8.5,10,15.3c0.3,3.6-0.5,7.2-0.5,10.8c0,9.4-1.1,19.1,0.4,28.2
		c2.9,17.4,0.5,34.8,1.5,52.1c0.4,6.6,0.8,13.3,0.9,20c0.1,2.9-0.8,5.9-0.9,8.8c-0.1,7.7,0.2,15.5-0.1,23.2
		c-0.4,8.9-1.2,17.8-2,26.7c-0.3,3.3-4.5,5.4-6.9,3.2c-1.9-1.7-3.7-4.5-3.9-7c-1.4-14.6-1.8-29.2-3.4-43.7
		c-2.2-19.7-5.2-39.2-7.6-58.9c-1.2-9.7-2.7-19.4-3-29.2c-0.3-11.1-0.3-21.9-8-31.1c-4.1-4.9-4.7-10.7-1.6-16.9
		c1-2.1,0.9-5.4,0.1-7.6c-1.7-4.5-0.7-7.6,2.7-10.6c4-3.6,7.8-7.4,11.7-11.2c4.7-4.5,4.2-8.5-2.1-10.8c-8.4-3-17-5.7-25.7-7.9
		c-6.9-1.8-11.9-5.1-12.3-9.4c-0.3-3.9,3.8-7.2,10.8-10c9.2-3.7,16.9-0.4,24.7,4c12,6.7,24,13.4,36.2,19.9c5.3,2.9,11.5,2,15.1-2.7
		c5.2-6.7,13-9.9,19.1-15.1c8-6.8,16.8-5.4,26.1-5.2c10.9,0.3,21.8-0.9,32.7-1.5c0.8,0,1.7-0.3,2.5-0.2c9.4,1,17.9-1.1,26-5.9
		c2.3-1.3,5.9-1.4,8.6-0.6c2.1,0.6,4.6,3,5.1,5c0.3,1.5-2,4.1-3.8,5.4c-4.3,3.4-8.5,7.3-13.5,9.2c-9.9,3.7-20.1,6.8-30.5,9.1
		C572.6,32.2,563.8,32.6,556.7,33.4z M512.4,77.6c2-2.7,4.1-4.4,3.8-5.4c-0.5-1.6-2.5-3.2-4.1-3.7c-0.9-0.2-3.5,2.1-3.4,3
		C508.8,73.3,510.5,74.8,512.4,77.6z"/>
	<path class="st0" d="M314.9,197c0-12.8-0.4-25.7,0.2-38.5c0.3-7.6,2.1-15.1,3.4-22.6c0.7-4.1,1.4-8.3,2.9-12.1
		c1.5-3.8,3.8-7.5,6.3-10.8c7.2-9.6,17.3-15.8,28.2-20c10.2-3.9,21.2-4.5,31.3,1.6c7.2,4.3,15.3,7.7,21,13.5
		c10.4,10.7,16.7,23.6,18.4,39.2c1,9.1,0.7,18.1-2,25.9c-3.6,10.5-7.7,21.4-16.9,29.3c-8,6.9-16.8,11.5-27,12.8
		c-11,1.4-21.5-0.5-30.6-7.6c-1.4-1.1-2.8-2.4-4.4-3.2c-4.1-2.1-7.8-0.1-8.5,4.4c-0.2,1.1-0.2,2.4,0.1,3.5c2.5,8.8,2,17.8,2,26.8
		c0,8-3.9,14.2-10.3,14.7c-6,0.4-13.7-7-13.9-14c-0.2-8.3,0.1-16.7,0.1-25c0-6,0-12,0-18C315.1,197,315,197,314.9,197z M338.7,153.2
		c0.4,3.5,0.8,7.3,1.4,11c1.9,12.5,7.4,22.5,19.2,28.5c9.1,4.5,21.8,3,28.9-4.4c3-3.1,4.8-7.4,8-10.3c3.6-3.3,4.4-7.1,4.4-11.5
		c0-2.8,0-5.8,0.9-8.4c3.2-9.3-1-17.9-1.8-26.9c-0.1-0.9-0.9-1.8-1.5-2.6C391,118.7,383,110.3,369,113c-0.8,0.2-1.7-0.2-2.5,0.1
		c-3.5,1.2-7.7,1.7-10.4,4C344.7,126.1,339.5,138.4,338.7,153.2z"/>
	<path class="st0" d="M730.3,128.2c0.7,7.5,1.7,15,2,22.5c0.2,3.8-1,7.7-1.2,11.5c-0.5,7.5,0.1,15.3-1.4,22.6
		c-1.7,8.2-4.8,16.2-8.2,23.8c-4.8,10.7-10.6,20.9-15.7,31.5c-3.9,8.1-15.4,10.5-21.5,4c-2.3-2.4-1.9-5-0.1-8.1
		c3.7-6.3,6.9-12.9,10.2-19.4c2-3.9,4.6-7.9,5.3-12.1c1.8-10.6,2.8-21.3,4-32c0.2-2.1-0.4-4.5,0.2-6.5c4.9-16.8,0.8-33.4-1.1-50
		c-0.8-6.6,0.1-13.5-1.7-19.7c-3.2-11.5-7.6-22.6-11.8-33.9c-0.8-2.1-3.1-3.5-4-5.6c-1.1-2.5-2.8-6.1-1.8-7.9
		c1.9-3.5,5.7-5.2,10.1-3.2c5.2,2.5,9.1,6.1,12,11.1c3.2,5.5,6.9,10.8,10.1,16.3c1,1.6,1.1,3.7,1.9,5.5c2.3,5,5.3,9.8,7,15
		c2.3,7,3.9,14.3,5.3,21.5c0.8,4.2,0.7,8.5,1,12.8C730.7,128.2,730.5,128.2,730.3,128.2z"/>
	<path class="st0" d="M0.3,147.1c2.2-12.1,4.5-24.8,6.8-37.6c0.5-2.9,1-6,0.8-8.9c-0.7-8.8,3-15.8,8.4-22.3c0.9-1.1,1.6-2.6,1.8-4
		c2.1-10.7,9.7-17.9,16.1-25.9c2.3-2.9,5.6-4.1,8.5-2.1c2.3,1.6,4,4.5,5.2,7.1c1.5,3.4,0.6,6.6-1.7,9.9c-3.1,4.5-5.8,9.3-8.2,14.2
		c-1.2,2.4-1.1,5.4-1.7,8.1c-0.7,3.4-1.5,6.8-2.1,10.2c-0.7,3.8-1.3,7.7-2.1,11.5c-0.9,4.5-2,9-2.9,13.5c-1.1,5.4-2.5,10.8-2.8,16.3
		c-0.4,7.5-0.3,15,0.5,22.5c0.8,7.5,2.7,14.9,4.1,22.4c2,11.2,3.6,22.4,6.2,33.5c1.1,4.6,4,8.9,6.2,13.2c1.3,2.5,2.9,4.8,4.1,7.3
		c1.4,2.9,3.2,5.7-0.2,8.8c-3.8,3.3-7.7,4-11.8,1.5c-1.9-1.1-3.8-2.9-4.9-4.9c-6.7-11.7-14.1-23.1-19.2-35.4
		c-3.4-8.2-3.5-17.9-5.1-26.8c-1.4-7.3-3-14.6-4.3-21.9C1.2,154.2,0.9,151.1,0.3,147.1z"/>
	<path class="st0" d="M638.1,74.3c-7.6,8.5-18.5,7.7-24.6-1.2c-2.9-4.2-6.3-8.1-9.4-12.3c-2-2.7-4.4-5.2-5.4-8.3
		c-1-3-1.7-7.5-0.2-9.7c2.2-3.2,6.8-5.5,10.9-3.4c4.7,2.3,9.9,5.1,13.1,9.1c5.3,6.7,9.3,14.6,13.7,22
		C636.9,71.8,637.5,73.1,638.1,74.3z"/>
	<path class="st0" d="M105.1,80.3c-1.6-1.4-5.3-3.3-7.3-6.3c-2.3-3.4-0.6-6.9,1.9-10.3c4.2-5.6,7.4-11.8,11.3-17.7
		c4.9-7.3,13.5-8.9,20.2-3.9c4,3,4.5,9.6,1.3,13.5c-4.9,6-9.8,12.1-14.4,18.4C115.3,77.7,112,80,105.1,80.3z"/>
</g>
</svg>
